<svg viewBox="0 0 1200 1010" xmlns="http://www.w3.org/2000/svg" role="img" aria-label="MemFleet — what happens when agents share a coordination layer">
  <defs>
    <radialGradient id="bgGlow" cx="50%" cy="38%" r="60%">
      <stop offset="0%" stop-color="#00D4C8" stop-opacity="0.14"/>
      <stop offset="55%" stop-color="#00D4C8" stop-opacity="0.04"/>
      <stop offset="100%" stop-color="#00D4C8" stop-opacity="0"/>
    </radialGradient>
    <linearGradient id="cardGrad" x1="0" x2="0" y1="0" y2="1">
      <stop offset="0%" stop-color="#0F1822" stop-opacity="0.95"/>
      <stop offset="100%" stop-color="#0A1117" stop-opacity="0.98"/>
    </linearGradient>
    <linearGradient id="barBefore" x1="0" x2="1" y1="0" y2="0">
      <stop offset="0%" stop-color="#F87171"/>
      <stop offset="100%" stop-color="#FB923C"/>
    </linearGradient>
    <linearGradient id="barAfter" x1="0" x2="1" y1="0" y2="0">
      <stop offset="0%" stop-color="#00D4C8"/>
      <stop offset="100%" stop-color="#22D3EE"/>
    </linearGradient>
    <linearGradient id="curveStroke" x1="0" x2="1" y1="0" y2="0">
      <stop offset="0%" stop-color="#22D3EE"/>
      <stop offset="100%" stop-color="#00D4C8"/>
    </linearGradient>
  </defs>

  <!-- Background -->
  <rect width="1200" height="1010" fill="#020303"/>
  <rect width="1200" height="1010" fill="url(#bgGlow)"/>

  <!-- Kicker -->
  <text x="600" y="58" font-family="Consolas, 'Courier New', monospace" font-size="13" letter-spacing="6" font-weight="700" fill="#00D4C8" text-anchor="middle">MEASURED · 475 AGENTS · 30 OVERLAP ZONES · K=2 / K=5 / K=10</text>

  <!-- Title -->
  <text x="600" y="108" font-family="Inter, system-ui, sans-serif" font-size="34" font-weight="700" fill="#F6FBFF" text-anchor="middle">When a coding fleet shares a coordination layer,</text>
  <text x="600" y="148" font-family="Inter, system-ui, sans-serif" font-size="34" font-weight="700" fill="#F6FBFF" text-anchor="middle">three things change.</text>

  <!-- =========================================================
       PANEL 1 — Fewer fire drills (conflicts to humans)
       ========================================================= -->
  <g transform="translate(40, 200)">
    <rect x="0" y="0" width="360" height="380" rx="16" fill="url(#cardGrad)" stroke="#1E2837" stroke-width="1"/>

    <!-- Tag -->
    <rect x="20" y="20" width="170" height="24" rx="12" fill="#F87171" fill-opacity="0.12" stroke="#F87171" stroke-opacity="0.4"/>
    <text x="105" y="37" font-family="Consolas, monospace" font-size="11" font-weight="700" letter-spacing="2" fill="#F87171" text-anchor="middle">FEWER FIRE DRILLS</text>

    <!-- Big number -->
    <text x="180" y="130" font-family="Inter, system-ui, sans-serif" font-size="84" font-weight="800" fill="#00D4C8" text-anchor="middle">96%</text>
    <text x="180" y="160" font-family="Inter, system-ui, sans-serif" font-size="13" font-weight="600" fill="#9DA8B0" text-anchor="middle">FEWER MERGE CONFLICTS</text>
    <text x="180" y="178" font-family="Inter, system-ui, sans-serif" font-size="13" font-weight="600" fill="#9DA8B0" text-anchor="middle">THAT INTERRUPT A HUMAN</text>

    <!-- Before dots (red) — 77 visualized as 11×7 -->
    <g transform="translate(40, 210)">
      <text x="0" y="0" font-family="Consolas, monospace" font-size="11" font-weight="700" fill="#F87171">BEFORE · 77</text>
      <g transform="translate(0, 14)">
        <!-- 11 cols × 7 rows = 77 dots -->
        <g fill="#F87171">
          <!-- row 1 -->
          <circle cx="4" cy="4" r="2.4"/><circle cx="14" cy="4" r="2.4"/><circle cx="24" cy="4" r="2.4"/><circle cx="34" cy="4" r="2.4"/><circle cx="44" cy="4" r="2.4"/><circle cx="54" cy="4" r="2.4"/><circle cx="64" cy="4" r="2.4"/><circle cx="74" cy="4" r="2.4"/><circle cx="84" cy="4" r="2.4"/><circle cx="94" cy="4" r="2.4"/><circle cx="104" cy="4" r="2.4"/>
          <!-- row 2 -->
          <circle cx="4" cy="14" r="2.4"/><circle cx="14" cy="14" r="2.4"/><circle cx="24" cy="14" r="2.4"/><circle cx="34" cy="14" r="2.4"/><circle cx="44" cy="14" r="2.4"/><circle cx="54" cy="14" r="2.4"/><circle cx="64" cy="14" r="2.4"/><circle cx="74" cy="14" r="2.4"/><circle cx="84" cy="14" r="2.4"/><circle cx="94" cy="14" r="2.4"/><circle cx="104" cy="14" r="2.4"/>
          <!-- row 3 -->
          <circle cx="4" cy="24" r="2.4"/><circle cx="14" cy="24" r="2.4"/><circle cx="24" cy="24" r="2.4"/><circle cx="34" cy="24" r="2.4"/><circle cx="44" cy="24" r="2.4"/><circle cx="54" cy="24" r="2.4"/><circle cx="64" cy="24" r="2.4"/><circle cx="74" cy="24" r="2.4"/><circle cx="84" cy="24" r="2.4"/><circle cx="94" cy="24" r="2.4"/><circle cx="104" cy="24" r="2.4"/>
          <!-- row 4 -->
          <circle cx="4" cy="34" r="2.4"/><circle cx="14" cy="34" r="2.4"/><circle cx="24" cy="34" r="2.4"/><circle cx="34" cy="34" r="2.4"/><circle cx="44" cy="34" r="2.4"/><circle cx="54" cy="34" r="2.4"/><circle cx="64" cy="34" r="2.4"/><circle cx="74" cy="34" r="2.4"/><circle cx="84" cy="34" r="2.4"/><circle cx="94" cy="34" r="2.4"/><circle cx="104" cy="34" r="2.4"/>
          <!-- row 5 -->
          <circle cx="4" cy="44" r="2.4"/><circle cx="14" cy="44" r="2.4"/><circle cx="24" cy="44" r="2.4"/><circle cx="34" cy="44" r="2.4"/><circle cx="44" cy="44" r="2.4"/><circle cx="54" cy="44" r="2.4"/><circle cx="64" cy="44" r="2.4"/><circle cx="74" cy="44" r="2.4"/><circle cx="84" cy="44" r="2.4"/><circle cx="94" cy="44" r="2.4"/><circle cx="104" cy="44" r="2.4"/>
          <!-- row 6 -->
          <circle cx="4" cy="54" r="2.4"/><circle cx="14" cy="54" r="2.4"/><circle cx="24" cy="54" r="2.4"/><circle cx="34" cy="54" r="2.4"/><circle cx="44" cy="54" r="2.4"/><circle cx="54" cy="54" r="2.4"/><circle cx="64" cy="54" r="2.4"/><circle cx="74" cy="54" r="2.4"/><circle cx="84" cy="54" r="2.4"/><circle cx="94" cy="54" r="2.4"/><circle cx="104" cy="54" r="2.4"/>
          <!-- row 7 -->
          <circle cx="4" cy="64" r="2.4"/><circle cx="14" cy="64" r="2.4"/><circle cx="24" cy="64" r="2.4"/><circle cx="34" cy="64" r="2.4"/><circle cx="44" cy="64" r="2.4"/><circle cx="54" cy="64" r="2.4"/><circle cx="64" cy="64" r="2.4"/><circle cx="74" cy="64" r="2.4"/><circle cx="84" cy="64" r="2.4"/><circle cx="94" cy="64" r="2.4"/><circle cx="104" cy="64" r="2.4"/>
        </g>
      </g>
    </g>

    <!-- Arrow -->
    <g transform="translate(195, 252)" stroke="#00D4C8" stroke-width="2" fill="none" stroke-linecap="round" stroke-linejoin="round">
      <line x1="0" y1="0" x2="22" y2="0"/>
      <polyline points="14,-7 22,0 14,7"/>
    </g>

    <!-- After dots (teal) — 3 -->
    <g transform="translate(240, 210)">
      <text x="0" y="0" font-family="Consolas, monospace" font-size="11" font-weight="700" fill="#00D4C8">AFTER · 3</text>
      <g transform="translate(0, 14)" fill="#00D4C8">
        <circle cx="4" cy="4" r="3.4"/>
        <circle cx="14" cy="4" r="3.4"/>
        <circle cx="24" cy="4" r="3.4"/>
      </g>
    </g>

    <!-- Plain-language conclusion -->
    <text x="180" y="330" font-family="Inter, system-ui, sans-serif" font-size="14" fill="#D8E0E8" text-anchor="middle">Almost every collision that would have</text>
    <text x="180" y="350" font-family="Inter, system-ui, sans-serif" font-size="14" fill="#D8E0E8" text-anchor="middle">paged a dev now resolves itself.</text>
  </g>

  <!-- =========================================================
       PANEL 2 — Faster releases (wall-clock)
       ========================================================= -->
  <g transform="translate(420, 200)">
    <rect x="0" y="0" width="360" height="380" rx="16" fill="url(#cardGrad)" stroke="#1E2837" stroke-width="1"/>

    <!-- Tag -->
    <rect x="20" y="20" width="170" height="24" rx="12" fill="#FB923C" fill-opacity="0.12" stroke="#FB923C" stroke-opacity="0.4"/>
    <text x="105" y="37" font-family="Consolas, monospace" font-size="11" font-weight="700" letter-spacing="2" fill="#FB923C" text-anchor="middle">FASTER RELEASES</text>

    <!-- Big number -->
    <text x="180" y="130" font-family="Inter, system-ui, sans-serif" font-size="84" font-weight="800" fill="#00D4C8" text-anchor="middle">45%</text>
    <text x="180" y="160" font-family="Inter, system-ui, sans-serif" font-size="13" font-weight="600" fill="#9DA8B0" text-anchor="middle">LESS WALL-CLOCK</text>
    <text x="180" y="178" font-family="Inter, system-ui, sans-serif" font-size="13" font-weight="600" fill="#9DA8B0" text-anchor="middle">PER FLEET RUN</text>

    <!-- Bar chart -->
    <g transform="translate(40, 210)">
      <!-- Before -->
      <text x="0" y="0" font-family="Consolas, monospace" font-size="11" font-weight="700" fill="#F87171">BEFORE</text>
      <text x="280" y="0" font-family="Consolas, monospace" font-size="11" font-weight="600" fill="#9DA8B0" text-anchor="end">2607 s</text>
      <rect x="0" y="8" width="280" height="18" rx="4" fill="url(#barBefore)"/>

      <!-- After -->
      <text x="0" y="48" font-family="Consolas, monospace" font-size="11" font-weight="700" fill="#00D4C8">AFTER</text>
      <text x="280" y="48" font-family="Consolas, monospace" font-size="11" font-weight="600" fill="#9DA8B0" text-anchor="end">1429 s</text>
      <rect x="0" y="56" width="154" height="18" rx="4" fill="url(#barAfter)"/>

      <!-- Savings bracket -->
      <line x1="154" y1="84" x2="280" y2="84" stroke="#00D4C8" stroke-width="1" stroke-dasharray="3,3"/>
      <text x="217" y="100" font-family="Inter, system-ui, sans-serif" font-size="12" font-weight="700" fill="#00D4C8" text-anchor="middle">19.6 min saved</text>
    </g>

    <!-- Plain-language conclusion -->
    <text x="180" y="330" font-family="Inter, system-ui, sans-serif" font-size="14" fill="#D8E0E8" text-anchor="middle">Same outcome, in half the time —</text>
    <text x="180" y="350" font-family="Inter, system-ui, sans-serif" font-size="14" fill="#D8E0E8" text-anchor="middle">your fleet ships before lunch, not after.</text>
  </g>

  <!-- =========================================================
       PANEL 3 — Fleet compound (1 of 10)
       ========================================================= -->
  <g transform="translate(800, 200)">
    <rect x="0" y="0" width="360" height="380" rx="16" fill="url(#cardGrad)" stroke="#1E2837" stroke-width="1"/>

    <!-- Tag -->
    <rect x="20" y="20" width="170" height="24" rx="12" fill="#22D3EE" fill-opacity="0.12" stroke="#22D3EE" stroke-opacity="0.4"/>
    <text x="105" y="37" font-family="Consolas, monospace" font-size="11" font-weight="700" letter-spacing="2" fill="#22D3EE" text-anchor="middle">FLEET COMPOUND</text>

    <!-- Big number -->
    <text x="180" y="130" font-family="Inter, system-ui, sans-serif" font-size="84" font-weight="800" fill="#00D4C8" text-anchor="middle">9 of 10</text>
    <text x="180" y="160" font-family="Inter, system-ui, sans-serif" font-size="13" font-weight="600" fill="#9DA8B0" text-anchor="middle">AGENTS SIDE-STEP THE COLLISION</text>
    <text x="180" y="178" font-family="Inter, system-ui, sans-serif" font-size="13" font-weight="600" fill="#9DA8B0" text-anchor="middle">BEFORE WORK BEGINS</text>

    <!-- 10 agent avatars: 1 active (filled teal), 9 grayed-out -->
    <g transform="translate(40, 210)">
      <!-- Row 1 of 2 — 5 agents -->
      <!-- agent 1 (active) -->
      <g transform="translate(15, 18)">
        <circle r="14" fill="#00D4C8" fill-opacity="0.18" stroke="#00D4C8" stroke-width="2"/>
        <circle r="5" cy="-3" fill="#00D4C8"/>
        <path d="M -8 8 a 8 8 0 0 1 16 0" fill="#00D4C8"/>
      </g>
      <!-- agents 2-5 (skipped) -->
      <g transform="translate(75, 18)" opacity="0.4">
        <circle r="14" fill="none" stroke="#4A5568" stroke-width="1.5" stroke-dasharray="3,2"/>
        <circle r="5" cy="-3" fill="#4A5568"/>
        <path d="M -8 8 a 8 8 0 0 1 16 0" fill="#4A5568"/>
      </g>
      <g transform="translate(135, 18)" opacity="0.4">
        <circle r="14" fill="none" stroke="#4A5568" stroke-width="1.5" stroke-dasharray="3,2"/>
        <circle r="5" cy="-3" fill="#4A5568"/>
        <path d="M -8 8 a 8 8 0 0 1 16 0" fill="#4A5568"/>
      </g>
      <g transform="translate(195, 18)" opacity="0.4">
        <circle r="14" fill="none" stroke="#4A5568" stroke-width="1.5" stroke-dasharray="3,2"/>
        <circle r="5" cy="-3" fill="#4A5568"/>
        <path d="M -8 8 a 8 8 0 0 1 16 0" fill="#4A5568"/>
      </g>
      <g transform="translate(255, 18)" opacity="0.4">
        <circle r="14" fill="none" stroke="#4A5568" stroke-width="1.5" stroke-dasharray="3,2"/>
        <circle r="5" cy="-3" fill="#4A5568"/>
        <path d="M -8 8 a 8 8 0 0 1 16 0" fill="#4A5568"/>
      </g>

      <!-- Row 2 — 5 more skipped agents -->
      <g transform="translate(15, 70)" opacity="0.4">
        <circle r="14" fill="none" stroke="#4A5568" stroke-width="1.5" stroke-dasharray="3,2"/>
        <circle r="5" cy="-3" fill="#4A5568"/>
        <path d="M -8 8 a 8 8 0 0 1 16 0" fill="#4A5568"/>
      </g>
      <g transform="translate(75, 70)" opacity="0.4">
        <circle r="14" fill="none" stroke="#4A5568" stroke-width="1.5" stroke-dasharray="3,2"/>
        <circle r="5" cy="-3" fill="#4A5568"/>
        <path d="M -8 8 a 8 8 0 0 1 16 0" fill="#4A5568"/>
      </g>
      <g transform="translate(135, 70)" opacity="0.4">
        <circle r="14" fill="none" stroke="#4A5568" stroke-width="1.5" stroke-dasharray="3,2"/>
        <circle r="5" cy="-3" fill="#4A5568"/>
        <path d="M -8 8 a 8 8 0 0 1 16 0" fill="#4A5568"/>
      </g>
      <g transform="translate(195, 70)" opacity="0.4">
        <circle r="14" fill="none" stroke="#4A5568" stroke-width="1.5" stroke-dasharray="3,2"/>
        <circle r="5" cy="-3" fill="#4A5568"/>
        <path d="M -8 8 a 8 8 0 0 1 16 0" fill="#4A5568"/>
      </g>
      <g transform="translate(255, 70)" opacity="0.4">
        <circle r="14" fill="none" stroke="#4A5568" stroke-width="1.5" stroke-dasharray="3,2"/>
        <circle r="5" cy="-3" fill="#4A5568"/>
        <path d="M -8 8 a 8 8 0 0 1 16 0" fill="#4A5568"/>
      </g>

    </g>

    <!-- Plain-language conclusion -->
    <text x="180" y="330" font-family="Inter, system-ui, sans-serif" font-size="14" fill="#D8E0E8" text-anchor="middle">One agent's work covers the whole fleet.</text>
    <text x="180" y="350" font-family="Inter, system-ui, sans-serif" font-size="14" fill="#D8E0E8" text-anchor="middle">The other nine save tokens and avoid stomping.</text>
  </g>

  <!-- =========================================================
       PANEL 4 — Token economics (full-width row)
       ========================================================= -->
  <g transform="translate(40, 620)">
    <rect x="0" y="0" width="1120" height="240" rx="16" fill="url(#cardGrad)" stroke="#1E2837" stroke-width="1"/>

    <!-- Tag -->
    <rect x="30" y="22" width="200" height="24" rx="12" fill="#FACC15" fill-opacity="0.12" stroke="#FACC15" stroke-opacity="0.4"/>
    <text x="130" y="39" font-family="Consolas, monospace" font-size="11" font-weight="700" letter-spacing="2" fill="#FACC15" text-anchor="middle">TOKEN ECONOMICS</text>

    <!-- LEFT: big number + headline -->
    <text x="50" y="135" font-family="Inter, system-ui, sans-serif" font-size="80" font-weight="800" fill="#00D4C8">~90%</text>
    <text x="50" y="168" font-family="Inter, system-ui, sans-serif" font-size="15" font-weight="600" fill="#D8E0E8">OF BASELINE TOKENS BURN ON WORK</text>
    <text x="50" y="188" font-family="Inter, system-ui, sans-serif" font-size="15" font-weight="600" fill="#D8E0E8">THAT NEVER SURVIVES THE MERGE</text>
    <text x="50" y="214" font-family="Consolas, monospace" font-size="11" fill="#9DA8B0">~93M of 103M tokens · ~$18 of every $20 spent · 271 of 300 agents collide</text>

    <!-- RIGHT: bar visualization -->
    <g transform="translate(540, 70)">
      <!-- Baseline bar -->
      <text x="0" y="0" font-family="Consolas, monospace" font-size="11" font-weight="700" fill="#F87171">WITHOUT COORDINATION  ·  103M tokens</text>
      <text x="540" y="0" font-family="Consolas, monospace" font-size="11" font-weight="600" fill="#9DA8B0" text-anchor="end">$20.48</text>
      <!-- 90% red, 10% teal (right rounded) -->
      <rect x="0" y="10" width="486" height="24" rx="4" fill="url(#barBefore)"/>
      <path d="M 486,10 L 536,10 Q 540,10 540,14 L 540,30 Q 540,34 536,34 L 486,34 Z" fill="#00D4C8"/>
      <text x="243" y="27" font-family="Consolas, monospace" font-size="11" font-weight="700" fill="#5A0E0E" text-anchor="middle">~93M WASTED ON COLLISIONS</text>
      <text x="513" y="27" font-family="Consolas, monospace" font-size="10" font-weight="700" fill="#0A1117" text-anchor="middle">~10M</text>

      <!-- Coordinated bar -->
      <text x="0" y="64" font-family="Consolas, monospace" font-size="11" font-weight="700" fill="#00D4C8">WITH MEMFLEET (production)  ·  ~10M tokens</text>
      <text x="540" y="64" font-family="Consolas, monospace" font-size="11" font-weight="600" fill="#00D4C8" text-anchor="end">~$2</text>
      <rect x="0" y="74" width="54" height="24" rx="4" fill="url(#barAfter)"/>
      <text x="64" y="91" font-family="Consolas, monospace" font-size="11" font-style="italic" fill="#9DA8B0">redundant agents skip before they ever spawn</text>

      <!-- Disclosure -->
      <text x="0" y="130" font-family="Consolas, monospace" font-size="10" fill="#9DA8B0">Bench measured: <tspan fill="#22D3EE" font-weight="700">−25.7%</tspan> tokens (subprocess cold-start floors it)  ·  Production projection: <tspan fill="#00D4C8" font-weight="700">−90%</tspan></text>
    </g>
  </g>

  <!-- =========================================================
       BOTTOM BAND — Scaling curve (K=2 → K=5 → K=10)
       ========================================================= -->
  <g transform="translate(40, 880)">
    <rect x="0" y="0" width="1120" height="110" rx="12" fill="url(#cardGrad)" stroke="#1E2837" stroke-width="1"/>

    <!-- Label -->
    <text x="30" y="30" font-family="Consolas, monospace" font-size="11" letter-spacing="3" font-weight="700" fill="#00D4C8">HOW IT SCALES — MORE AGENTS, BIGGER PAYOFF</text>

    <!-- Curve graphic -->
    <g transform="translate(30, 60)">
      <!-- Baseline axis -->
      <line x1="0" y1="35" x2="500" y2="35" stroke="#1E2837" stroke-width="1"/>

      <!-- Curve through three measured points: K=2 (51.7%), K=5 (73.9%), K=10 (90.3%) -->
      <path d="M 40,30 Q 180,8 270,-6 T 460,-22" stroke="url(#curveStroke)" stroke-width="2.5" fill="none" stroke-linecap="round"/>

      <!-- Dot K=2 -->
      <circle cx="40" cy="30" r="5" fill="#00D4C8"/>
      <text x="40" y="55" font-family="Consolas, monospace" font-size="11" font-weight="700" fill="#F6FBFF" text-anchor="middle">2 agents</text>
      <text x="40" y="-2" font-family="Consolas, monospace" font-size="11" font-weight="700" fill="#22D3EE" text-anchor="middle">52% skip</text>

      <!-- Dot K=5 -->
      <circle cx="240" cy="-2" r="5" fill="#00D4C8"/>
      <text x="240" y="55" font-family="Consolas, monospace" font-size="11" font-weight="700" fill="#F6FBFF" text-anchor="middle">5 agents</text>
      <text x="240" y="-18" font-family="Consolas, monospace" font-size="11" font-weight="700" fill="#22D3EE" text-anchor="middle">74% skip</text>

      <!-- Dot K=10 -->
      <circle cx="460" cy="-22" r="5" fill="#00D4C8"/>
      <text x="460" y="55" font-family="Consolas, monospace" font-size="11" font-weight="700" fill="#F6FBFF" text-anchor="middle">10 agents</text>
      <text x="460" y="-32" font-family="Consolas, monospace" font-size="11" font-weight="700" fill="#22D3EE" text-anchor="middle">90% skip</text>
    </g>

    <!-- Right-hand caption -->
    <g transform="translate(620, 40)">
      <text x="0" y="0" font-family="Inter, system-ui, sans-serif" font-size="14" font-weight="600" fill="#F6FBFF">The more agents you run in parallel, the more</text>
      <text x="0" y="20" font-family="Inter, system-ui, sans-serif" font-size="14" font-weight="600" fill="#F6FBFF">work coordination prevents. It compounds.</text>
      <text x="0" y="48" font-family="Consolas, monospace" font-size="11" fill="#9DA8B0">Coordination overhead: <tspan fill="#00D4C8" font-weight="700">0.01% of runtime</tspan> · 1,040 nodes protected at K=10</text>
    </g>
  </g>
</svg>
